# xmcd
#
# Track frame offsets:
#	150
#	16104
#	33262
#	50271
#	66811
#	82013
#	103403
#	119225
#	141270
#	154896
#	178923
#	202339
#
# Disc length: 2888 seconds
#
# Revision: 1
# Processed by: cddbd v1.5.2PL0 Copyright (c) Steve Scherf et al.
# Submitted via: audiograbber 1.83.01
#
DISCID=b40b460c
DTITLE=dB's - Falling Off the Sky
DYEAR=2012
DGENRE=Indie
TTITLE0=That Time Is Gone
TTITLE1=Before We Were Born
TTITLE2=The Wonder of Love
TTITLE3=Write Back
TTITLE4=Far Away and Long Ago
TTITLE5=Send Me Something Real
TTITLE6=World to Cry
TTITLE7=The Adventures of Albatross and Doggerel
TTITLE8=I Didn't Mean to Say That
TTITLE9=Collide-oOo-Scope
TTITLE10=She Won't Drive in the Rain Anymore
TTITLE11=Remember (Falling Off the Sky)
EXTD=
EXTT0=
EXTT1=
EXTT2=
EXTT3=
EXTT4=
EXTT5=
EXTT6=
EXTT7=
EXTT8=
EXTT9=
EXTT10=
EXTT11=
PLAYORDER=
